<?xml version="1.0" encoding="utf-8"?><svg viewBox="0 0 502.66 502.66" xmlns="http://www.w3.org/2000/svg" xmlns:xlink="http://www.w3.org/1999/xlink"><style>:root>svg{display:none}:root>svg:target{display:block}</style><svg viewBox="0 0 24 24" id="checked-1" xmlns="http://www.w3.org/2000/svg"><path d="M12 2C6.467 2 2 6.467 2 12s4.467 10 10 10 10-4.467 10-10S17.533 2 12 2zm4.3 6.3l1.4 1.4-7.7 7.7-3.7-3.7 1.4-1.4 2.3 2.3 6.3-6.3z"/></svg><svg viewBox="0 0 24 24" id="checked-2" xmlns="http://www.w3.org/2000/svg"><path d="M12 2C6.467 2 2 6.467 2 12s4.467 10 10 10 10-4.467 10-10S17.533 2 12 2zm4.3 6.3l1.4 1.4-7.7 7.7-3.7-3.7 1.4-1.4 2.3 2.3 6.3-6.3z"/></svg><svg viewBox="0 0 502.664 502.664" id="icon" xmlns="http://www.w3.org/2000/svg"><path d="M153.821 358.226L0 274.337v-46.463l153.821-83.414v54.574L46.636 250.523l107.185 53.431v54.272zm26.273 29.358L282.103 115.08h32.227L212.084 387.584h-31.99zm168.749-29.358v-54.272l107.164-52.999-107.164-52.59v-53.927l153.821 83.522v46.183l-153.821 84.083z"/></svg></svg>